<svg width="48" height="48" viewBox="0 0 48 48" fill="none" xmlns="http://www.w3.org/2000/svg">
<rect width="48" height="48" rx="24" fill="#DE5F5B"/>
<path d="M22.8691 36.7411C22.8691 37.5695 23.5407 38.2411 24.3691 38.2411C25.1976 38.2411 25.8691 37.5695 25.8691 36.7411L22.8691 36.7411ZM25.4298 9.69286C24.844 9.10707 23.8943 9.10707 23.3085 9.69286L13.7625 19.2388C13.1768 19.8246 13.1768 20.7743 13.7625 21.3601C14.3483 21.9459 15.2981 21.9459 15.8839 21.3601L24.3691 12.8748L32.8544 21.3601C33.4402 21.9459 34.39 21.9459 34.9757 21.3601C35.5615 20.7743 35.5615 19.8246 34.9757 19.2388L25.4298 9.69286ZM25.8691 36.7411L25.8691 10.7535L22.8691 10.7535L22.8691 36.7411L25.8691 36.7411Z" fill="white"/>
</svg>
